<svg width="405" height="475" viewBox="0 0 405 475" fill="none" xmlns="http://www.w3.org/2000/svg">
<path fill-rule="evenodd" clip-rule="evenodd" d="M204.868 468.503C162.426 470.741 130.911 465.438 107.748 454.606C84.6514 443.806 69.7136 427.442 60.4773 407.212C51.2102 386.914 47.6436 362.632 47.5214 336.024C47.3993 309.426 50.7173 280.668 55.0973 251.496C57.1532 237.803 59.4394 224.041 61.709 210.379L61.7092 210.379L62.15 207.724C64.562 193.2 66.9371 178.801 68.9683 164.776C73.0276 136.749 75.7356 110.081 74.6065 86.6919C73.4782 63.3231 68.5085 42.9296 56.9423 27.6953C45.3044 12.3665 27.2553 2.60566 0.743425 0.0118794L0.256575 4.98812C25.7031 7.47767 42.3414 16.7325 52.96 30.7188C63.6504 44.7996 68.5061 64.0207 69.6123 86.9331C70.7175 109.825 68.0687 136.105 64.0199 164.06C61.9971 178.026 59.6303 192.376 57.2176 206.905L56.7754 209.568C54.5071 223.221 52.2148 237.02 50.1527 250.754C45.7618 279.999 42.3975 309.059 42.5215 336.047C42.6454 363.024 46.2532 388.096 55.9289 409.288C65.6353 430.548 81.4084 447.809 105.63 459.136C129.787 470.432 162.199 475.759 205.132 473.497L204.868 468.503ZM114.338 27.474L92.4072 28.0024L94.5025 114.977L118.87 114.39C128.826 114.15 136.732 111.897 142.589 107.629C145.456 105.518 147.665 102.922 149.216 99.8425C150.809 96.7616 151.556 93.1384 151.455 88.9729C151.355 84.8075 150.139 81.044 147.807 77.6825C144.741 73.2551 140.063 70.221 133.771 68.5804L133.765 68.3305C137.091 66.2498 139.741 63.7686 141.713 60.8869C142.76 59.3612 143.575 57.6953 144.156 55.8891C144.779 54.0402 145.053 51.5746 144.978 48.4922C144.904 45.4097 144.059 42.325 142.442 39.2381C138.077 31.0491 128.709 27.1278 114.338 27.474ZM130.994 57.0815C128.788 62.4278 124.333 65.1817 117.626 65.3433L105.817 65.6278L105.132 37.1986L115.567 36.9472C121.107 36.8137 125.283 38.0051 128.094 40.5215C129.414 41.6984 130.387 43.1337 131.011 44.8275C131.634 46.4796 131.974 48.472 132.03 50.8047C132.086 53.0957 131.74 55.1879 130.994 57.0815ZM119.855 74.7924C132.018 74.4994 138.221 79.4139 138.465 89.5359C138.525 92.0352 138.036 94.2351 136.999 96.1357C133.925 101.753 127.806 104.672 118.642 104.893L106.77 105.179L106.046 75.125L119.855 74.7924ZM162.237 79.7731C162.792 102.808 174.857 114.042 198.434 113.474C204.974 113.316 210.522 112.641 215.077 111.447L214.823 100.888C210.272 102.289 205.602 103.048 200.811 103.163C196.063 103.278 192.535 103.05 190.229 102.48C180.544 100.088 175.559 92.9977 175.275 81.2095L217.888 80.1829L217.77 75.3093C217.564 66.7285 215.253 59.928 210.84 54.9078C206.083 49.5208 199.602 46.9261 191.396 47.1238C183.857 47.3055 177.216 50.1746 171.473 55.7312C165.077 61.8453 161.998 69.8593 162.237 79.7731ZM201.615 61.2568C203.889 63.9528 205.074 67.3003 205.17 71.2991L175.366 72.0171C175.269 67.9766 176.561 64.507 179.242 61.6083C182.168 58.4952 186.026 56.881 190.816 56.7656C195.356 56.6562 198.956 58.1533 201.615 61.2568ZM231.484 91.7963C232.394 94.9836 233.565 97.7479 234.997 100.089C236.47 102.388 238.121 104.328 239.951 105.909C241.781 107.449 243.686 108.674 245.666 109.585C247.689 110.495 249.705 111.134 251.714 111.502C253.724 111.871 255.749 112.03 257.79 111.981C259.873 111.931 261.886 111.57 263.828 110.898C268.913 109.15 272.664 106.58 275.083 103.187L275.762 110.61L287.009 110.339L285.456 45.8581L279.38 45.3793C276.625 45.1956 272.56 45.1685 267.187 45.2979C256.857 45.5468 248.278 48.4418 241.451 53.9828C237.936 56.8599 235.107 60.5125 232.963 64.9404C230.859 69.3257 229.87 74.1009 229.994 79.266C230.119 84.4312 230.615 88.608 231.484 91.7963ZM265.171 55.0368C267.837 54.9726 270.507 55.075 273.181 55.344L274.105 93.7079C273.748 94.4667 273.165 95.3351 272.355 96.3133C269.072 100.185 264.827 102.184 259.62 102.309C255.58 102.407 252.088 101.053 249.144 98.2478C245.261 94.4653 243.221 88.5335 243.027 80.4525C242.821 71.9133 244.876 65.5078 249.191 61.236C251.267 59.1854 253.793 57.6658 256.77 56.6771C259.746 55.6468 262.547 55.1 265.171 55.0368ZM319.812 109.549L318.583 61.1272C323.355 56.8027 328.47 54.5747 333.927 54.4432C339.425 54.3107 343.271 55.6768 345.466 58.5415C347.746 61.4874 348.975 66.6676 349.154 74.0822L349.991 108.822L362.487 108.521L361.313 59.7852C365.882 55.6739 370.957 53.5511 376.539 53.4166C378.872 53.3604 380.921 53.6653 382.688 54.3313C387.946 56.3302 390.705 62.7448 390.966 73.575L391.791 107.815L404.288 107.514L403.452 72.8366C403.186 61.7981 401.204 53.9269 397.507 49.2229C393.811 44.6022 388.048 42.3862 380.217 42.5749C372.302 42.7656 364.8 46.2389 357.711 52.995C353.595 46.5089 347.643 43.3596 339.853 43.5473C337.979 43.5925 336.067 43.8261 334.119 44.2481C328.065 45.561 322.793 48.1887 318.304 52.1313L317.259 45.0919L305.762 45.3689L307.316 109.85L319.812 109.549ZM96.5027 255.095C97.4131 258.282 98.5842 261.046 100.016 263.387C101.488 265.686 103.14 267.626 104.97 269.207C106.799 270.747 108.704 271.972 110.685 272.883C112.708 273.793 114.724 274.432 116.733 274.801C118.743 275.169 120.768 275.329 122.809 275.279C124.892 275.229 126.904 274.868 128.847 274.196C133.932 272.448 137.683 269.878 140.102 266.485L140.781 273.909L152.028 273.638L150.474 209.156L144.399 208.678C141.643 208.494 137.579 208.467 132.206 208.596C121.875 208.845 113.297 211.74 106.47 217.281C102.955 220.158 100.125 223.811 97.9813 228.239C95.878 232.624 94.8886 237.399 95.013 242.564C95.1374 247.73 95.634 251.906 96.5027 255.095ZM130.19 218.335C132.856 218.271 135.525 218.373 138.199 218.642L139.124 257.006C138.767 257.765 138.183 258.633 137.373 259.612C134.091 263.483 129.846 265.482 124.639 265.607C120.599 265.705 117.107 264.351 114.163 261.546C110.279 257.764 108.24 251.832 108.045 243.751C107.84 235.212 109.894 228.806 114.209 224.534C116.286 222.484 118.812 220.964 121.789 219.975C124.765 218.945 127.565 218.398 130.19 218.335ZM183.352 224.431C188.082 220.108 193.551 217.871 199.758 217.722C202.007 217.668 204.035 217.952 205.842 218.576C211.472 220.441 214.412 226.538 214.661 236.869L215.509 272.108L228.006 271.807L227.157 236.568C226.898 225.821 224.836 218.076 220.971 213.335C217.278 208.839 211.599 206.684 203.935 206.868C196.687 207.043 189.732 209.878 183.071 215.373L182.028 208.396L170.469 208.675L172.022 273.156L184.518 272.855L183.352 224.431ZM267.151 207.283C262.683 208.683 258.671 210.822 255.114 213.7C251.599 216.577 248.77 220.23 246.626 224.658C244.522 229.043 243.555 234.735 243.724 241.732C243.892 248.73 245.538 254.755 248.66 259.806C250.133 262.105 251.784 264.045 253.614 265.626C255.444 267.166 257.349 268.412 259.331 269.365C261.354 270.275 263.37 270.914 265.379 271.282C267.389 271.65 269.414 271.81 271.455 271.761C273.538 271.711 275.571 271.349 277.555 270.676C282.682 268.927 286.474 266.335 288.934 262.9L289.613 270.323L300.797 270.054L298.557 177.081L286.124 177.38L286.792 205.122C284.955 205 282.35 204.979 278.976 205.06C275.602 205.142 271.66 205.883 267.151 207.283ZM258.104 228.82C259.194 225.626 260.777 223.004 262.854 220.953C264.929 218.861 267.455 217.321 270.432 216.332C273.408 215.302 276.208 214.755 278.833 214.692C281.498 214.627 283.792 214.697 285.715 214.901L286.967 214.996L287.893 253.422C287.536 254.181 286.932 255.05 286.08 256.029C282.757 259.944 278.492 261.964 273.285 262.089C269.244 262.186 265.752 260.812 262.808 257.965C261.144 256.38 259.736 254.163 258.584 251.315C257.43 248.425 256.8 244.752 256.693 240.295C256.584 235.796 257.055 231.971 258.104 228.82ZM122.045 347.381L100.114 347.91L102.209 434.884L126.577 434.297C136.533 434.057 144.439 431.804 150.296 427.537C153.163 425.425 155.372 422.83 156.923 419.75C158.516 416.669 159.263 413.046 159.162 408.88C159.062 404.715 157.846 400.951 155.514 397.59C152.448 393.162 147.77 390.128 141.478 388.488L141.472 388.238C144.798 386.157 147.448 383.676 149.42 380.794C150.467 379.268 151.282 377.602 151.863 375.796C152.486 373.947 152.76 371.482 152.685 368.399C152.611 365.317 151.766 362.232 150.149 359.145C145.784 350.956 136.416 347.035 122.045 347.381ZM138.701 376.989C136.495 382.335 132.04 385.089 125.333 385.25L113.524 385.535L112.839 357.106L123.274 356.854C128.814 356.721 132.99 357.912 135.801 360.429C137.121 361.606 138.094 363.041 138.718 364.735C139.341 366.387 139.681 368.379 139.737 370.712C139.792 373.003 139.447 375.095 138.701 376.989ZM127.562 394.7C139.725 394.407 145.928 399.321 146.172 409.443C146.232 411.942 145.743 414.142 144.706 416.043C141.632 421.66 135.513 424.579 126.349 424.8L114.477 425.086L113.753 395.032L127.562 394.7ZM175.085 413.248C175.995 416.435 177.166 419.199 178.598 421.541C180.07 423.839 181.722 425.779 183.552 427.361C185.381 428.9 187.286 430.126 189.267 431.036C191.29 431.946 193.306 432.585 195.315 432.954C197.324 433.322 199.35 433.482 201.391 433.433C203.474 433.382 205.486 433.021 207.429 432.349C212.513 430.601 216.265 428.031 218.684 424.639L219.363 432.062L230.61 431.791L229.056 367.31L222.98 366.831C220.225 366.647 216.161 366.62 210.787 366.749C200.457 366.998 191.879 369.893 185.052 375.434C181.537 378.312 178.707 381.964 176.563 386.392C174.46 390.777 173.47 395.552 173.595 400.718C173.719 405.883 174.216 410.06 175.085 413.248ZM208.771 376.488C211.437 376.424 214.107 376.527 216.781 376.796L217.705 415.159C217.349 415.918 216.765 416.787 215.955 417.765C212.672 421.637 208.428 423.635 203.221 423.761C199.18 423.858 195.688 422.504 192.745 419.699C188.861 415.917 186.822 409.985 186.627 401.904C186.421 393.365 188.476 386.959 192.791 382.688C194.867 380.637 197.394 379.117 200.371 378.129C203.347 377.098 206.147 376.552 208.771 376.488ZM263.547 337.97L251.051 338.272L252.704 406.877C252.875 414 254.385 419.59 257.234 423.647C260.901 428.811 266.733 431.296 274.731 431.103C275.439 431.086 276.167 431.027 276.915 430.925L279.221 430.62L278.989 420.998C277.872 421.358 276.606 421.555 275.189 421.589C273.773 421.623 272.434 421.406 271.173 420.936C267.388 419.568 265.397 414.761 265.198 406.513L263.547 337.97ZM306.285 336.941L293.788 337.242L295.441 405.847C295.613 412.97 297.123 418.56 299.971 422.618C303.638 427.781 309.471 430.266 317.469 430.074C318.177 430.056 318.905 429.997 319.652 429.896L321.958 429.59L321.726 419.968C320.61 420.328 319.343 420.526 317.927 420.56C316.511 420.594 315.172 420.376 313.91 419.906C310.126 418.539 308.135 413.731 307.936 405.483L306.285 336.941Z" fill="#149ECA"/>
</svg>
